<svg width="1338" height="1052" xmlns="http://www.w3.org/2000/svg" xmlns:xlink="http://www.w3.org/1999/xlink" xml:space="preserve" overflow="hidden"><defs><clipPath id="clip0"><rect x="1531" y="801" width="1338" height="1052"/></clipPath></defs><g clip-path="url(#clip0)" transform="translate(-1531 -801)"><path d="M2821.21 1087.99 2773.48 1087.99 2773.48 1087.97 2821.21 1087.97 2821.21 1040.14 2773.48 1040.14 2773.48 992.347 2725.7 992.347 2725.7 944.459 2486.76 944.459 2486.76 944.55 2438.99 944.55 2391.19 944.55 2391.19 944.459 2438.99 944.459 2438.99 896.652 2343.4 896.652 2343.4 848.834 2247.79 848.834 2247.79 801 2104.45 801 2104.45 848.834 1913.26 848.834 1913.26 896.652 1817.7 896.652 1817.7 944.459 1865.5 944.459 1865.5 944.603 1817.7 944.603 1817.7 944.459 1769.9 944.459 1769.9 992.347 1817.7 992.347 1817.7 992.368 1769.9 992.368 1769.9 992.347 1722.1 992.347 1722.1 1040.14 1722.1 1087.97 1722.1 1135.81 1722.1 1231.37 1769.9 1231.37 1769.9 1231.4 1769.9 1327.01 1722.1 1327.01 1722.1 1374.74 1674.3 1374.74 1674.3 1422.6 1626.54 1422.6 1626.54 1470.41 1626.54 1470.43 1578.75 1470.43 1578.75 1565.99 1626.54 1565.99 1626.54 1566.11 1578.75 1566.11 1578.75 1566.07 1531 1566.07 1531 1613.91 1531 1709.46 1578.75 1709.46 1578.75 1709.55 1531 1709.55 1531 1757.36 1578.75 1757.36 1578.75 1805.19 1626.54 1805.19 1674.3 1805.19 1674.3 1853 1769.9 1853 1769.9 1805.19 1769.95 1805.19 1769.95 1853 2008.89 1853 2104.45 1853 2104.45 1805.19 2152.25 1805.19 2200.02 1805.19 2247.79 1805.19 2247.79 1757.36 2343.4 1757.36 2343.4 1709.55 2391.19 1709.55 2438.99 1709.55 2438.99 1661.76 2438.99 1661.65 2486.76 1661.65 2486.76 1613.91 2534.51 1613.91 2534.51 1566.07 2534.51 1518.24 2534.51 1470.41 2534.51 1422.62 2534.51 1422.6 2534.51 1279.21 2534.51 1135.81 2534.51 1040.23 2486.76 1040.23 2438.99 1040.23 2391.19 1040.23 2391.19 1040.08 2438.99 1040.08 2486.76 1040.08 2486.76 1040.14 2677.9 1040.14 2677.9 1040.17 2534.57 1040.17 2534.57 1183.57 2534.57 1183.61 2534.57 1422.53 2677.9 1422.53 2677.9 1422.6 2630.18 1422.6 2630.1 1422.6 2534.57 1422.6 2534.57 1470.41 2534.57 1518.24 2534.57 1566.07 2630.18 1566.07 2630.18 1518.24 2677.9 1518.24 2677.9 1470.41 2725.7 1470.41 2725.7 1422.6 2773.48 1422.6 2773.48 1374.8 2821.21 1374.8 2821.21 1279.21 2773.48 1279.21 2773.48 1279.18 2821.21 1279.18 2869 1279.18 2869 1087.99Z" fill="#A06536" fill-rule="evenodd"/><path d="M1913 849 2104 849 2104 897 1913 897Z" fill="#B68154" fill-rule="evenodd"/><path d="M2104 801 2248 801 2248 849 2104 849Z" fill="#B68154" fill-rule="evenodd"/><path d="M1818 897 1913 897 1913 945 1818 945" fill="#B68154" fill-rule="evenodd"/><path d="M1770 945 1818 945 1818 993.001 1770 993.001" fill="#B68154" fill-rule="evenodd"/><path d="M1722 993 1770 993 1770 1040 1722 1040" fill="#B68154" fill-rule="evenodd"/><path d="M1722 1040 1770 1040 1770 1088 1722 1088" fill="#976941" fill-rule="evenodd"/><path d="M1722 1088 1770 1088 1770 1136 1722 1136" fill="#7F4C26" fill-rule="evenodd"/><path d="M1722 1136 1770 1136 1770 1231 1722 1231" fill="#B68154" fill-rule="evenodd"/><path d="M1770 1184 1818 1184 1818 1231 1770 1231" fill="#A06536" fill-rule="evenodd"/><path d="M1770 993 1818 993 1818 1184 1770 1184" fill="#B77741" fill-rule="evenodd"/><path d="M1818 945 1866 945 1866 1040 1818 1040" fill="#B77741" fill-rule="evenodd"/><path d="M1818 1040 1866 1040 1866 1136 1818 1136" fill="#A06536" fill-rule="evenodd"/><path d="M1866 993 1913 993 1913 1088 1866 1088" fill="#B77741" fill-rule="evenodd"/><path d="M1866 945 1961 945 1961 993.001 1866 993.001" fill="#A06536" fill-rule="evenodd"/><path d="M1913 897 2104 897 2104 945 1913 945Z" fill="#7F4C26" fill-rule="evenodd"/><path d="M2104 897 2200 897 2200 945 2104 945" fill="#A06536" fill-rule="evenodd"/><path d="M2104 849 2248 849 2248 897 2104 897Z" fill="#B77741" fill-rule="evenodd"/><path d="M2200 897 2439 897 2439 945 2200 945Z" fill="#B77741" fill-rule="evenodd"/><path d="M2248 849 2343 849 2343 897 2248 897" fill="#B68154" fill-rule="evenodd"/><path d="M2391 945 2439 945 2439 1040 2391 1040" fill="#B77741" fill-rule="evenodd"/><path d="M2439 945 2487 945 2487 1040 2439 1040" fill="#A06536" fill-rule="evenodd"/><path d="M2487 993 2725 993 2725 1040 2487 1040Z" fill="#A06536" fill-rule="evenodd"/><path d="M2678 1040 2773 1040 2773 1088 2678 1088" fill="#A06536" fill-rule="evenodd"/><path d="M2487 945 2725 945 2725 993.001 2487 993.001Z" fill="#B77741" fill-rule="evenodd"/><path d="M2725 993 2773 993 2773 1040 2725 1040" fill="#B77741" fill-rule="evenodd"/><path d="M2773 1040 2821 1040 2821 1088 2773 1088" fill="#B77741" fill-rule="evenodd"/><path d="M2821 1088 2869 1088 2869 1279 2821 1279" fill="#B77741" fill-rule="evenodd"/><path d="M2773 1088 2821 1088 2821 1279 2773 1279" fill="#A06536" fill-rule="evenodd"/><path d="M2678 1231 2725 1231 2725 1375 2678 1375" fill="#B77741" fill-rule="evenodd"/><path d="M2678 1088 2773 1088 2773 1136 2678 1136" fill="#C39064" fill-rule="evenodd"/><path d="M2534 1040 2678 1040 2678 1184 2534 1184" fill="#C39064" fill-rule="evenodd"/><path d="M2487 1040 2534 1040 2534 1136 2487 1136" fill="#C39064" fill-rule="evenodd"/><path d="M2439 1040 2487 1040 2487 1136 2439 1136" fill="#B77741" fill-rule="evenodd"/><path d="M2487 1136 2534 1136 2534 1279 2487 1279" fill="#B77741" fill-rule="evenodd"/><path d="M2678 1136 2773 1136 2773 1231 2678 1231" fill="#B77741" fill-rule="evenodd"/><path d="M2534 1184 2678 1184 2678 1423 2534 1423" fill="#B77741" fill-rule="evenodd"/><path d="M2725 1231 2773 1231 2773 1375 2725 1375" fill="#A06536" fill-rule="evenodd"/><path d="M2678 1375 2725 1375 2725 1423 2678 1423" fill="#A06536" fill-rule="evenodd"/><path d="M2630 1423 2678 1423 2678 1470 2630 1470" fill="#A06536" fill-rule="evenodd"/><path d="M2534 1470 2630 1470 2630 1518 2534 1518" fill="#A06536" fill-rule="evenodd"/><path d="M2487 1518 2534 1518 2534 1566 2487 1566" fill="#A06536" fill-rule="evenodd"/><path d="M2773 1279 2821 1279 2821 1375 2773 1375" fill="#B77741" fill-rule="evenodd"/><path d="M2725 1375 2773 1375 2773 1423 2725 1423" fill="#B77741" fill-rule="evenodd"/><path d="M2678 1423 2725 1423 2725 1470 2678 1470" fill="#B77741" fill-rule="evenodd"/><path d="M2630 1470 2678 1470 2678 1518 2630 1518" fill="#B77741" fill-rule="evenodd"/><path d="M2534 1518 2630 1518 2630 1566 2534 1566" fill="#B77741" fill-rule="evenodd"/><path d="M2487 1566 2534 1566 2534 1614 2487 1614" fill="#B77741" fill-rule="evenodd"/><path d="M2534 1423 2630 1423 2630 1470 2534 1470" fill="#B77741" fill-rule="evenodd"/><path d="M2487 1470 2534 1470 2534 1518 2487 1518" fill="#B77741" fill-rule="evenodd"/><path d="M2439 1518 2487 1518 2487 1662 2439 1662" fill="#B77741" fill-rule="evenodd"/><path d="M2343 1566 2439 1566 2439 1614 2343 1614" fill="#B77741" fill-rule="evenodd"/><path d="M2391 1614 2439 1614 2439 1662 2391 1662" fill="#A06536" fill-rule="evenodd"/><path d="M2391 1662 2439 1662 2439 1709 2391 1709" fill="#B77741" fill-rule="evenodd"/><path d="M2296 1614 2391 1614 2391 1709 2296 1709" fill="#B77741" fill-rule="evenodd"/><path d="M2248 1709 2343 1709 2343 1757 2248 1757" fill="#B77741" fill-rule="evenodd"/><path d="M2200 1662 2296 1662 2296 1709 2200 1709" fill="#B77741" fill-rule="evenodd"/><path d="M2200 1709 2248 1709 2248 1757 2200 1757" fill="#A06536" fill-rule="evenodd"/><path d="M2200 1757 2248 1757 2248 1805 2200 1805" fill="#B77741" fill-rule="evenodd"/><path d="M2009 1709 2200 1709 2200 1757 2009 1757" fill="#B77741" fill-rule="evenodd"/><path d="M2104 1757 2152 1757 2152 1805 2104 1805" fill="#B77741" fill-rule="evenodd"/><path d="M2152 1757 2200 1757 2200 1805 2152 1805" fill="#B68154" fill-rule="evenodd"/><path d="M2009 1805 2104 1805 2104 1853 2009 1853" fill="#B68154" fill-rule="evenodd"/><path d="M1675 1757 2104 1757 2104 1805 1675 1805" fill="#A06536" fill-rule="evenodd"/><path d="M1770 1709 2009 1709 2009 1757 1770 1757" fill="#A06536" fill-rule="evenodd"/><path d="M1770 1805 2009 1805 2009 1853 1770 1853" fill="#B77741" fill-rule="evenodd"/><path d="M1675 1805 1770 1805 1770 1853 1675 1853" fill="#B68154" fill-rule="evenodd"/><path d="M1675 1709 1770 1709 1770 1757 1675 1757" fill="#B77741" fill-rule="evenodd"/><path d="M1627 1518 1722 1518 1722 1709 1627 1709" fill="#B77741" fill-rule="evenodd"/><path d="M1627 1709 1675 1709 1675 1757 1627 1757" fill="#A06536" fill-rule="evenodd"/><path d="M1627 1757 1675 1757 1675 1805 1627 1805" fill="#B77741" fill-rule="evenodd"/><path d="M1579 1757 1627 1757 1627 1805 1579 1805" fill="#B68154" fill-rule="evenodd"/><path d="M1531 1709 1627 1709 1627 1757 1531 1757" fill="#B68154" fill-rule="evenodd"/><path d="M1579 1566 1627 1566 1627 1709 1579 1709" fill="#A06536" fill-rule="evenodd"/><path d="M1531 1614 1579 1614 1579 1709 1531 1709" fill="#B77741" fill-rule="evenodd"/><path d="M1531 1566 1579 1566 1579 1614 1531 1614" fill="#B68154" fill-rule="evenodd"/><path d="M1579 1470 1627 1470 1627 1566 1579 1566" fill="#B77741" fill-rule="evenodd"/><path d="M1627 1470 1675 1470 1675 1518 1627 1518" fill="#A06536" fill-rule="evenodd"/><path d="M1675 1470 1818 1470 1818 1518 1675 1518Z" fill="#B77741" fill-rule="evenodd"/><path d="M1722 1518 1770 1518 1770 1566 1722 1566" fill="#B77741" fill-rule="evenodd"/><path d="M1722 1423 1818 1423 1818 1470 1722 1470" fill="#B77741" fill-rule="evenodd"/><path d="M1675 1375 1770 1375 1770 1423 1675 1423" fill="#B77741" fill-rule="evenodd"/><path d="M1675 1423 1722 1423 1722 1470 1675 1470" fill="#A06536" fill-rule="evenodd"/><path d="M1627 1423 1675 1423 1675 1470 1627 1470" fill="#B68154" fill-rule="evenodd"/><path d="M1722 1327 1770 1327 1770 1375 1722 1375" fill="#B77741" fill-rule="evenodd"/><path d="M1770 1231 1818 1231 1818 1375 1770 1375" fill="#7F4C26" fill-rule="evenodd"/><path d="M1770 1375 1818 1375 1818 1423 1770 1423" fill="#A06536" fill-rule="evenodd"/><path d="M1818 1327 1866 1327 1866 1375 1818 1375" fill="#623B1E" fill-rule="evenodd"/><path d="M1818 1184 1866 1184 1866 1327 1818 1327" fill="#7F4C26" fill-rule="evenodd"/><path d="M1818 1136 1866 1136 1866 1184 1818 1184" fill="#B68154" fill-rule="evenodd"/><path d="M1866 1088 1913 1088 1913 1136 1866 1136" fill="#B68154" fill-rule="evenodd"/><path d="M1913 993 2009 993 2009 1040 1913 1040" fill="#B77741" fill-rule="evenodd"/><path d="M1913 1040 2009 1040 2009 1088 1913 1088" fill="#C39064" fill-rule="evenodd"/><path d="M2009 993 2152 993 2152 1040 2009 1040" fill="#C39064" fill-rule="evenodd"/><path d="M1961 945 2152 945 2152 993.001 1961 993.001" fill="#B77741" fill-rule="evenodd"/><path d="M2152 945 2296 945 2296 993.001 2152 993.001" fill="#C39064" fill-rule="evenodd"/><path d="M2296 945 2343 945 2343 993.001 2296 993.001" fill="#B68154" fill-rule="evenodd"/><path d="M2343 945 2391 945 2391 993.001 2343 993.001" fill="#7F4C26" fill-rule="evenodd"/><path d="M2343 993 2391 993 2391 1088 2343 1088" fill="#A06536" fill-rule="evenodd"/><path d="M2391 1040 2439 1040 2439 1136 2391 1136" fill="#7F4C26" fill-rule="evenodd"/><path d="M2439 1136 2487 1136 2487 1327 2439 1327" fill="#7F4C26" fill-rule="evenodd"/><path d="M2391 1136 2439 1136 2439 1375 2391 1375" fill="#A06536" fill-rule="evenodd"/><path d="M2487 1279 2534 1279 2534 1423 2487 1423" fill="#58371C" fill-rule="evenodd"/><path d="M2439 1327 2487 1327 2487 1375 2439 1375" fill="#58371C" fill-rule="evenodd"/><path d="M2343 1375 2487 1375 2487 1470 2343 1470" fill="#4F321A" fill-rule="evenodd"/><path d="M2487 1423 2534 1423 2534 1470 2487 1470" fill="#3F2813" fill-rule="evenodd"/><path d="M2439 1470 2487 1470 2487 1518 2439 1518" fill="#3F2813" fill-rule="evenodd"/><path d="M2343 1518 2439 1518 2439 1566 2343 1566" fill="#3F2813" fill-rule="evenodd"/><path d="M2296 1566 2343 1566 2343 1614 2296 1614" fill="#3F2813" fill-rule="evenodd"/><path d="M2200 1614 2296 1614 2296 1662 2200 1662" fill="#3F2813" fill-rule="evenodd"/><path d="M1913 1662 2200 1662 2200 1709 1913 1709" fill="#3F2813" fill-rule="evenodd"/><path d="M2296 1423 2343 1423 2343 1470 2296 1470" fill="#4F321A" fill-rule="evenodd"/><path d="M2152 1470 2439 1470 2439 1518 2152 1518" fill="#4F321A" fill-rule="evenodd"/><path d="M2104 1518 2343 1518 2343 1566 2104 1566" fill="#4F321A" fill-rule="evenodd"/><path d="M2152 1566 2296 1566 2296 1614 2152 1614" fill="#4F321A" fill-rule="evenodd"/><path d="M2152 1614 2200 1614 2200 1662 2152 1662" fill="#311F10" fill-rule="evenodd"/><path d="M2009 1566 2152 1566 2152 1662 2009 1662" fill="#311F10" fill-rule="evenodd"/><path d="M1961 1518 2104 1518 2104 1566 1961 1566" fill="#311F10" fill-rule="evenodd"/><path d="M1961 1566 2009 1566 2009 1614 1961 1614" fill="#311F10" fill-rule="evenodd"/><path d="M1961 1614 2009 1614 2009 1662 1961 1662" fill="#1C1108" fill-rule="evenodd"/><path d="M1866 1518 1961 1518 1961 1662 1866 1662" fill="#1C1108" fill-rule="evenodd"/><path d="M1866 1662 1913 1662 1913 1709 1866 1709" fill="#58371C" fill-rule="evenodd"/><path d="M1818 1614 1866 1614 1866 1662 1818 1662" fill="#58371C" fill-rule="evenodd"/><path d="M1818 1662 1866 1662 1866 1709 1818 1709" fill="#7F4C26" fill-rule="evenodd"/><path d="M1770 1614 1818 1614 1818 1662 1770 1662" fill="#7F4C26" fill-rule="evenodd"/><path d="M1722 1662 1818 1662 1818 1709 1722 1709" fill="#A06536" fill-rule="evenodd"/><path d="M1722 1566 1770 1566 1770 1662 1722 1662" fill="#A06536" fill-rule="evenodd"/><path d="M1770 1518 1818 1518 1818 1614 1770 1614" fill="#A06536" fill-rule="evenodd"/><path d="M1818 1518 1866 1518 1866 1614 1818 1614" fill="#311F10" fill-rule="evenodd"/><path d="M1818 1375 1866 1375 1866 1518 1818 1518" fill="#7F4C26" fill-rule="evenodd"/><path d="M1866 1375 1913 1375 1913 1518 1866 1518" fill="#623B1E" fill-rule="evenodd"/><path d="M1913 1423 1961 1423 1961 1518 1913 1518" fill="#623B1E" fill-rule="evenodd"/><path d="M1961 1470 2009 1470 2009 1518 1961 1518" fill="#623B1E" fill-rule="evenodd"/><path d="M2009 1470 2152 1470 2152 1518 2009 1518" fill="#7F4C26" fill-rule="evenodd"/><path d="M1961 1423 2057 1423 2057 1470 1961 1470" fill="#7F4C26" fill-rule="evenodd"/><path d="M1913 1375 2009 1375 2009 1423 1913 1423" fill="#7F4C26" fill-rule="evenodd"/><path d="M1866 1327 1961 1327 1961 1375 1866 1375" fill="#7F4C26" fill-rule="evenodd"/><path d="M1866 1279 1913 1279 1913 1327 1866 1327" fill="#7F4C26" fill-rule="evenodd"/><path d="M1866 1136 1913 1136 1913 1279 1866 1279" fill="#A06536" fill-rule="evenodd"/><path d="M1913 1088 2009 1088 2009 1136 1913 1136" fill="#A06536" fill-rule="evenodd"/><path d="M2009 1040 2057 1040 2057 1088 2009 1088" fill="#A06536" fill-rule="evenodd"/><path d="M2057 1040 2152 1040 2152 1088 2057 1088" fill="#7F4C26" fill-rule="evenodd"/><path d="M2009 1088 2200 1088 2200 1136 2009 1136" fill="#7F4C26" fill-rule="evenodd"/><path d="M1913 1136 2104 1136 2104 1184 1913 1184" fill="#7F4C26" fill-rule="evenodd"/><path d="M2152 993 2200 993 2200 1040 2152 1040" fill="#B68154" fill-rule="evenodd"/><path d="M2200 993 2343 993 2343 1088 2200 1088" fill="#B68154" fill-rule="evenodd"/><path d="M2152 1040 2200 1040 2200 1088 2152 1088" fill="#B77741" fill-rule="evenodd"/><path d="M2200 1088 2248 1088 2248 1136 2200 1136" fill="#B77741" fill-rule="evenodd"/><path d="M2248 1088 2296 1088 2296 1136 2248 1136" fill="#B68154" fill-rule="evenodd"/><path d="M2296 1088 2391 1088 2391 1136 2296 1136" fill="#B77741" fill-rule="evenodd"/><path d="M2200 1136 2391 1136 2391 1375 2200 1375" fill="#B77741" fill-rule="evenodd"/><path d="M2152 1279 2200 1279 2200 1470 2152 1470" fill="#B77741" fill-rule="evenodd"/><path d="M2200 1423 2248 1423 2248 1470 2200 1470" fill="#A06536" fill-rule="evenodd"/><path d="M2200 1375 2343 1375 2343 1423 2200 1423" fill="#B77741" fill-rule="evenodd"/><path d="M2248 1423 2296 1423 2296 1470 2248 1470" fill="#B77741" fill-rule="evenodd"/><path d="M1913 1184 1961 1184 1961 1279 1913 1279" fill="#B77741" fill-rule="evenodd"/><path d="M2152 1136 2200 1136 2200 1279 2152 1279" fill="#A06536" fill-rule="evenodd"/><path d="M2104 1136 2152 1136 2152 1184 2104 1184" fill="#A06536" fill-rule="evenodd"/><path d="M2057 1184 2152 1184 2152 1470 2057 1470" fill="#A06536" fill-rule="evenodd"/><path d="M2009 1184 2057 1184 2057 1423 2009 1423" fill="#A06536" fill-rule="evenodd"/><path d="M1961 1184 2009 1184 2009 1375 1961 1375" fill="#A06536" fill-rule="evenodd"/><path d="M1913 1279 1961 1279 1961 1327 1913 1327" fill="#A06536" fill-rule="evenodd"/></g></svg>