<svg width="735" height="735" xmlns="http://www.w3.org/2000/svg" xmlns:xlink="http://www.w3.org/1999/xlink" xml:space="preserve" overflow="hidden"><g transform="translate(-345 -695)"><path d="M724.891 714.401C724.677 716.826 723.505 718.728 721.375 720.107 683.68 750.168 646.167 780.457 608.838 810.97L593.891 810.97C598.856 804.976 603.986 799.121 609.277 793.412 640.347 761.367 671.266 729.178 702.032 696.843 703.416 695.85 704.882 695.704 706.428 696.404 712.435 702.552 718.591 708.552 724.891 714.401" fill="#F6E245" fill-rule="evenodd" fill-opacity="0.988235"/><path d="M784.385 719.432C784.847 720.617 784.994 721.79 784.823 722.949 733.078 752.367 681.27 781.674 629.399 810.868 625.72 811.146 622.217 810.853 618.892 809.988 657.256 782.357 695.784 754.954 734.474 727.785 735.633 727.067 736.216 726.041 736.226 724.708 747.528 716.468 759.062 708.552 770.813 700.969 772.601 702.691 774.352 704.449 776.067 706.245 778.672 710.745 781.446 715.145 784.385 719.432" fill="#428EDA" fill-rule="evenodd"/><path d="M724.505 713.969 735.892 724.544C735.882 725.88 735.299 726.909 734.14 727.628 695.439 754.859 656.9 782.324 618.526 810.019L617.65 810.019C614.823 810.824 611.904 811.118 608.892 810.9 646.079 780.273 683.45 749.871 721.002 719.697 723.124 718.313 724.292 716.404 724.505 713.969" fill="#A39731" fill-rule="evenodd"/><path d="M846.891 748.561C788.232 767.514 729.358 785.797 670.28 803.408 666.973 804.155 664.044 805.472 661.494 807.357 657.417 808.608 653.316 809.778 649.192 810.867 644.92 811.147 640.819 810.855 636.891 809.989 688.914 785.04 741.049 760.322 793.293 735.837 794.396 735.471 794.982 734.74 795.05 733.643 807.026 728.331 818.891 722.773 830.636 716.97 831.294 717.086 831.905 717.392 832.393 717.847 837.7 727.856 842.537 738.104 846.891 748.561" fill="#94D405" fill-rule="evenodd"/><path d="M784.352 719.97 794.891 733.961C794.824 735.054 794.238 735.782 793.135 736.147 740.912 760.546 688.798 785.176 636.796 810.037L635.918 810.037C633.675 810.814 631.332 811.105 628.891 810.912 680.922 781.876 732.887 752.728 784.791 723.468 784.962 722.314 784.816 721.148 784.352 719.97" fill="#2B5F92" fill-rule="evenodd"/><path d="M846.759 748.97C848.396 752.925 850.452 756.697 852.892 760.224 852.794 760.758 852.502 761.191 852.015 761.522 788.726 777.017 725.35 792.166 661.891 806.97 664.435 805.111 667.355 803.812 670.653 803.075 729.562 785.703 788.267 767.666 846.759 748.97" fill="#6A9401" fill-rule="evenodd"/><path d="M911.892 800.437C844.11 803.586 776.345 807.096 708.601 810.97L649.891 810.97C654.004 809.88 658.093 808.71 662.159 807.459 725.626 792.449 789.009 777.09 852.307 761.38 852.794 761.044 853.085 760.605 853.182 760.063 868.497 755.971 883.994 752.603 899.624 749.97 900.35 751.564 901.081 753.172 901.815 754.797 905.195 770.087 908.554 785.301 911.892 800.437" fill="#FD4F57" fill-rule="evenodd"/><path d="M912.249 799.968C913.817 803.36 914.698 807.027 914.891 810.968L707.891 810.968C775.99 806.923 844.111 803.257 912.249 799.968" fill="#B2363D" fill-rule="evenodd"/><path d="M617.97 809.969 618.847 809.969C622.177 810.832 625.684 811.124 629.367 810.846 631.804 811.04 634.142 810.748 636.381 809.969 638.197 811.117 640.388 811.702 642.956 811.723 645.314 811.721 647.506 811.429 649.531 810.846L966.892 810.846 966.892 945.889C966.024 953.328 965.726 960.928 966.015 968.688L966.015 992.364C965.787 995.606 966.076 998.863 966.892 1002.01 966.024 1007.4 965.734 1012.95 966.015 1018.67L966.015 1066.9C965.726 1133.9 966.015 1200.84 966.892 1267.71L966.892 1329.09 791.554 1329.09C787.443 1328.85 783.316 1329.14 779.281 1329.97 773.894 1329.1 768.342 1328.81 762.624 1329.09L752.104 1329.09C737.808 1327.92 723.441 1327.92 709.146 1329.09L448.77 1329.09 448.77 1167.74C449.641 1159.43 449.933 1150.95 449.647 1142.31 449.793 1134.42 449.647 1126.52 449.208 1118.64 448.297 1117.99 447.859 1117.11 447.893 1116.01 448.434 1116.1 448.873 1116.4 449.208 1116.88 449.647 1106.37 449.793 1095.84 449.647 1085.32 449.939 1010.05 449.646 934.926 448.77 859.953L448.77 810.846 595.177 810.846C598.817 811.431 602.617 811.723 606.573 811.723 610.713 811.716 614.512 811.131 617.97 809.969" fill="#3C3B3B" fill-rule="evenodd" fill-opacity="0.988235"/><path d="M617.891 809.965C614.401 811.291 610.568 811.958 606.391 811.966 602.398 811.965 598.564 811.632 594.89 810.965L609.044 810.965C612.087 811.213 615.035 810.878 617.891 809.965" fill="#716C3E" fill-rule="evenodd"/><path d="M635.884 809.965 636.818 809.965C640.99 810.952 645.346 811.284 649.885 810.965 647.729 811.63 645.395 811.963 642.884 811.966 640.151 811.941 637.817 811.274 635.884 809.965" fill="#576C2C" fill-rule="evenodd"/><path d="M460.946 824.97 953.836 824.97C953.984 988.345 953.836 1151.72 953.397 1315.09 871.457 1315.68 789.454 1315.97 707.391 1315.97 625.327 1315.97 543.325 1315.68 461.385 1315.09 460.946 1151.72 460.8 988.344 460.946 824.97" fill="#444444" fill-rule="evenodd"/><path d="M448.825 859.97C449.765 935.155 450.08 1010.49 449.766 1085.97 448.662 1085.08 448.034 1083.91 447.883 1082.45 448.819 1073.23 449.132 1063.85 448.825 1054.31Z" fill="#8C383D" fill-rule="evenodd"/><path d="M448.887 859.97 448.887 1053.97C444.224 989.944 440.557 925.855 437.886 861.725 441.533 861.028 445.202 860.442 448.887 859.97" fill="#B0363C" fill-rule="evenodd"/><path d="M438.115 861.97C440.704 926.002 444.261 989.994 448.782 1053.92 449.073 1063.43 448.777 1072.78 447.893 1081.97 435.859 1032.57 423.71 983.191 411.446 933.843 411.248 930.633 410.359 927.712 408.779 925.078 408.874 922.817 408.281 920.772 407.002 918.942 404.832 911.331 402.61 903.734 400.335 896.153 399.085 888.224 397.603 880.332 395.89 872.488 409.803 868.378 423.892 864.869 438.115 861.97" fill="#FD4E57" fill-rule="evenodd"/><path d="M874.56 902.603C875.118 909.036 874.971 915.51 874.12 921.91 854.626 1017.8 835.422 1113.76 816.511 1209.77L813.872 1209.77C771.554 1192.9 729.335 1175.79 687.22 1158.43 683.255 1156.72 679.151 1156.13 674.907 1156.67 673.868 1157.44 673.099 1158.51 672.708 1159.74 672.121 1184.9 672.121 1210.06 672.708 1235.22 673.415 1237.54 674.735 1239.3 676.666 1240.48 672.066 1241.74 668.108 1240.57 664.792 1236.97 664.206 1208.89 664.206 1180.81 664.792 1152.72 692.955 1119.51 720.953 1086.16 748.787 1052.67 762.114 1036.6 775.601 1020.65 789.245 1004.84 773.562 1016.8 758.022 1028.94 742.631 1041.27 732.518 1048.23 722.548 1055.4 712.727 1062.77 683.539 1085.08 654.514 1107.61 625.653 1130.34 624.586 1131.02 623.388 1131.47 622.135 1131.66 596.455 1121.71 570.945 1111.32 545.616 1100.5 540.732 1097.07 538.973 1092.53 540.339 1086.9 541.051 1085.75 541.941 1084.71 542.977 1083.83 650.118 1022.92 757.128 961.778 864.005 900.409 866.644 899.823 869.282 899.823 871.921 900.409 873.189 900.74 874.069 901.471 874.56 902.603" fill="#FEFEFE" fill-rule="evenodd"/><path d="M874.285 902.97C878.043 904.698 879.502 907.62 878.661 911.732 861.817 1008.91 845.478 1106.17 829.647 1203.51 828.543 1205.93 827.814 1208.56 827.458 1211.4 822.521 1213.97 817.999 1213.39 813.891 1209.65L816.517 1209.65C835.338 1113.79 854.448 1017.99 873.848 922.247 874.694 915.856 874.841 909.393 874.285 902.97" fill="#DBDBDB" fill-rule="evenodd"/><path d="M816.891 1216.65C825.902 1217.61 830.006 1213.51 829.204 1204.35 845.113 1106.71 861.531 1009.16 878.457 911.693 880.252 909.553 882.305 909.406 884.614 911.253 887.298 913.186 889.057 915.676 889.891 918.723 873.164 1018.98 856.013 1119.17 838.439 1219.29 834.899 1221.83 830.941 1222.57 826.566 1221.49 823.051 1220.32 819.826 1218.71 816.891 1216.65" fill="#2F2F2F" fill-rule="evenodd"/><path d="M407.387 918.969C408.66 920.799 409.249 922.843 409.156 925.102 409.353 928.31 410.237 931.231 411.809 933.864 424.009 983.19 436.094 1032.54 448.067 1081.93 448.208 1083.37 448.798 1084.54 449.835 1085.43 449.983 1095.95 449.835 1106.46 449.393 1116.97 449.055 1116.48 448.612 1116.19 448.067 1116.09L448.067 1115.22C449.091 1107.2 449.238 1099.02 448.509 1090.69 430.821 1035.54 413.281 980.344 395.89 925.102 399.517 922.701 403.367 920.647 407.387 918.969" fill="#6B9203" fill-rule="evenodd"/><path d="M396.309 924.97C413.539 980.178 430.917 1035.34 448.441 1090.45 449.164 1098.78 449.017 1106.95 448.003 1114.97 426.336 1069.04 404.432 1023.21 382.291 977.504 381.89 976.806 381.306 976.514 380.538 976.629 375.252 964.688 369.701 952.864 363.891 941.168 364.118 940.064 364.703 939.188 365.644 938.541 375.674 933.597 385.905 929.069 396.309 924.97" fill="#95D402" fill-rule="evenodd"/><path d="M408.876 924.969C410.654 927.673 411.654 930.673 411.877 933.969 410.099 931.265 409.099 928.265 408.876 924.969" fill="#A77626" fill-rule="evenodd"/><path d="M966.882 945.97C1004.05 981.403 1041.44 1016.7 1079.01 1051.84 1080.01 1053.22 1080.16 1054.68 1079.45 1056.22 1071.83 1063.69 1064.33 1071.27 1056.94 1078.97 1026.63 1042.22 996.309 1005.47 965.999 968.72 965.707 960.977 966.007 953.393 966.882 945.97" fill="#F6E245" fill-rule="evenodd" fill-opacity="0.988235"/><path d="M965.89 968.97C996.221 1005.8 1026.56 1042.62 1056.89 1079.45 1053.63 1082.98 1050.39 1086.49 1047.17 1089.97 1044.6 1088.45 1042.39 1086.4 1040.55 1083.83 1016.16 1048.7 991.274 1013.92 965.89 979.491Z" fill="#A39730" fill-rule="evenodd"/><path d="M380.329 976.994C381.1 976.879 381.686 977.172 382.089 977.872 404.323 1023.72 426.319 1069.68 448.076 1115.75L448.076 1116.62C448.042 1117.73 448.482 1118.61 449.396 1119.26 449.836 1127.16 449.983 1135.06 449.836 1142.97 448.598 1142.55 448.012 1141.68 448.076 1140.34 448.661 1138.01 448.954 1135.52 448.956 1132.87 449.038 1129.75 448.592 1126.63 447.636 1123.65 421.772 1078.18 396.255 1032.51 371.091 986.654 370.5 985.993 369.767 985.7 368.891 985.776 372.531 982.631 376.35 979.699 380.329 976.994" fill="#2D5F8F" fill-rule="evenodd"/><path d="M965.891 978.969C991.241 1013.51 1016.1 1048.41 1040.45 1083.66 1042.29 1086.24 1044.5 1088.29 1047.07 1089.82 1053.1 1100.09 1060.04 1109.81 1067.8 1118.85 1068.84 1120.94 1069.88 1122.99 1070.89 1125.01 1070.86 1126.36 1070.27 1127.39 1069.13 1128.09 1063.09 1131.82 1057.21 1135.79 1051.48 1139.97 1050.14 1139.96 1049.11 1139.37 1048.39 1138.21 1021.59 1089.14 994.091 1040.45 965.891 992.166Z" fill="#428DDA" fill-rule="evenodd"/><path d="M368.968 985.981C369.842 985.906 370.574 986.198 371.163 986.856 396.281 1032.55 421.749 1078.04 447.565 1123.35 448.518 1126.31 448.964 1129.42 448.882 1132.53 448.879 1135.18 448.587 1137.65 448.004 1139.97 424.578 1107.91 401.596 1075.54 379.067 1042.85 378.075 1041.42 376.758 1040.54 375.115 1040.23 365.868 1027.37 356.793 1014.39 347.891 1001.29 348.118 1000.19 348.704 999.314 349.647 998.668 356.19 994.597 362.632 990.366 368.968 985.981" fill="#408DDB" fill-rule="evenodd"/><path d="M965.967 992.97C993.948 1041.07 1021.24 1089.57 1047.83 1138.45 1048.55 1139.61 1049.56 1140.2 1050.89 1140.21 1046.96 1143.75 1042.54 1146.7 1037.76 1148.97 1036.66 1148.9 1035.94 1148.32 1035.57 1147.22 1012.74 1098.98 989.825 1050.78 966.842 1002.61 966.028 999.465 965.739 996.21 965.967 992.97" fill="#2B5E91" fill-rule="evenodd"/><path d="M966.875 1001.97C989.979 1050.35 1013.01 1098.77 1035.97 1147.22 1036.34 1148.33 1037.07 1148.91 1038.17 1148.98 1043.67 1161.19 1049.24 1173.37 1054.89 1185.51 1054.66 1186.62 1054.07 1187.5 1053.13 1188.15 1050.07 1189.35 1047.12 1190.82 1044.33 1192.56 1038.44 1194.47 1032.83 1197.14 1027.61 1200.48 1026.17 1200.91 1024.7 1201.06 1023.21 1200.92 1004.55 1140.05 985.473 1079.31 965.995 1018.7 965.713 1012.95 966.004 1007.38 966.875 1001.97" fill="#94D405" fill-rule="evenodd"/><path d="M748.642 1052.89C711.436 1080.28 674.681 1108.27 638.392 1136.87 634.214 1138.87 630.715 1138.14 627.892 1134.67L742.517 1041.46C757.829 1029.11 773.289 1016.95 788.892 1004.97 775.317 1020.81 761.9 1036.78 748.642 1052.89" fill="#2F2F2F" fill-rule="evenodd"/><path d="M965.891 1018.97C985.298 1079.5 1004.3 1140.15 1022.89 1200.94 1019.19 1203.44 1015.39 1205.78 1011.49 1207.97 1007.87 1196.07 1004.65 1184.05 1001.85 1171.93 1001.92 1169.6 1001.34 1167.55 1000.09 1165.77 989.244 1119.34 977.844 1073.04 965.891 1026.88Z" fill="#6A9301" fill-rule="evenodd"/><path d="M965.891 1026.97C977.844 1072.92 989.244 1119 1000.09 1165.22 1000.01 1167.54 1000.6 1169.58 1001.85 1171.35 1004.65 1183.41 1007.87 1195.37 1011.49 1207.22 1015.23 1222.26 1019.02 1237.28 1022.89 1252.28 1021.82 1253.81 1020.37 1254.68 1018.51 1254.91 1004.55 1258.54 990.507 1261.89 976.414 1264.97 973.731 1199.01 970.224 1133.09 965.891 1067.22Z" fill="#FC4F56" fill-rule="evenodd"/><path d="M374.721 1039.97C376.374 1040.28 377.698 1041.16 378.695 1042.6 401.351 1075.35 424.461 1107.79 448.017 1139.92 447.953 1141.25 448.541 1142.13 449.784 1142.55 450.072 1151.18 449.778 1159.65 448.901 1167.97 449.048 1162.12 448.901 1156.27 448.459 1150.44 421.096 1116.7 393.573 1083.09 365.891 1049.61 368.19 1045.87 371.187 1042.6 374.721 1039.97" fill="#A19632" fill-rule="evenodd"/><path d="M366.128 1049.97C393.709 1083.38 421.132 1116.92 448.396 1150.59 448.836 1156.42 448.983 1162.25 448.836 1168.09L448.836 1168.97C424.94 1146.81 401.182 1124.49 377.567 1102.03 376.214 1101.06 375.628 1099.75 375.807 1098.1 374.902 1098.23 373.979 1098.08 373.167 1097.66 364.222 1088.61 355.129 1079.72 345.891 1070.97 350.916 1064.5 356.353 1058.37 362.169 1052.59 363.563 1051.84 364.888 1050.96 366.128 1049.97" fill="#F5E245" fill-rule="evenodd" fill-opacity="0.988235"/><path d="M742.891 1041.97 627.62 1134.27C625.185 1136.38 622.545 1136.52 619.7 1134.71 593.883 1123.3 567.769 1112.55 541.386 1102.49 537.355 1099.5 536.035 1095.58 537.426 1090.73 538.007 1089.15 539.034 1087.99 540.506 1087.25 539.14 1092.84 540.9 1097.34 545.786 1100.75 571.126 1111.48 596.648 1121.79 622.34 1131.66 623.593 1131.48 624.792 1131.03 625.86 1130.36 654.734 1107.8 683.773 1085.45 712.973 1063.3 722.8 1055.99 732.774 1048.88 742.891 1041.97" fill="#A7A7A7" fill-rule="evenodd"/><path d="M966 1066.97C970.482 1133.05 974.111 1199.17 976.888 1265.34 973.431 1265.65 970.056 1266.54 966.907 1267.97 966 1201.03 965.701 1134.03 966 1066.97" fill="#AF363C" fill-rule="evenodd"/><path d="M813.914 1210.26C818.054 1214 822.611 1214.59 827.587 1212.01 827.945 1209.17 828.68 1206.53 829.793 1204.11 830.597 1213.26 826.48 1217.35 817.443 1216.4 793.554 1206.92 769.735 1197.27 745.99 1187.44 743.559 1185.95 740.912 1184.78 738.051 1183.93 719.532 1175.34 700.701 1167.44 681.594 1160.24L680.712 1161.11C685.961 1170.2 689.966 1179.94 692.621 1190.07 694.163 1197.99 695.781 1205.88 697.473 1213.77 695.053 1217.21 693.289 1221.01 692.18 1225.17 687.82 1230.24 682.968 1234.92 677.625 1239.21 677.223 1239.71 677.062 1240.35 677.184 1240.97L676.302 1240.97C674.365 1239.78 673.041 1238.03 672.332 1235.7 671.744 1210.55 671.744 1185.39 672.332 1160.24 672.724 1159.01 673.495 1157.93 674.538 1157.17 678.794 1156.62 682.911 1157.21 686.887 1158.92 729.127 1176.28 771.471 1193.39 813.914 1210.26" fill="#AAAAAA" fill-rule="evenodd"/><path d="M737.892 1183.69C735.89 1183.78 734.136 1184.51 732.63 1185.88 719.04 1198.76 705.592 1211.79 692.291 1224.97 693.394 1220.8 695.147 1217 697.553 1213.55 695.871 1205.66 694.263 1197.76 692.73 1189.83 690.09 1179.69 686.109 1169.94 680.891 1160.85L681.768 1159.97C700.762 1167.18 719.482 1175.09 737.892 1183.69" fill="#959595" fill-rule="evenodd"/><path d="M1000.94 1164.97C1001.65 1166.98 1001.98 1169.31 1001.93 1171.97 1001.23 1169.95 1000.9 1167.62 1000.94 1164.97" fill="#BB6D31" fill-rule="evenodd"/><path d="M738.051 1183.97C740.877 1184.82 743.491 1185.99 745.892 1187.49 727.161 1204.8 708.573 1222.27 690.129 1239.89 686.434 1243.49 682.369 1243.94 677.931 1241.21 677.811 1240.59 677.97 1239.94 678.367 1239.45 683.644 1235.14 688.437 1230.44 692.743 1225.36 705.958 1212.15 719.319 1199.08 732.823 1186.17 734.319 1184.8 736.061 1184.06 738.051 1183.97" fill="#2E2E2E" fill-rule="evenodd"/><path d="M708.891 1329.48C723.201 1328.82 737.582 1328.82 751.892 1329.48 751.892 1329.82 751.599 1329.98 751.014 1329.98 741.226 1329.48 731.281 1329.32 721.177 1329.48Z" fill="#4C5930" fill-rule="evenodd"/><path d="M506.891 1328.97 707.892 1328.97C706.387 1330.1 704.632 1330.71 702.625 1330.8 700.303 1330.19 697.816 1329.89 695.165 1329.88 633.27 1333.26 571.39 1336.62 509.524 1339.97 508.649 1336.32 507.772 1332.65 506.891 1328.97" fill="#B0363C" fill-rule="evenodd"/><path d="M708.671 1328.97 721.891 1328.97C671.879 1345.68 621.637 1361.68 571.179 1376.97 569.25 1373.5 567.484 1369.94 565.891 1366.3 567.079 1364.54 568.842 1363.51 571.179 1363.19 615.312 1352.65 659.381 1341.83 703.383 1330.75 705.397 1330.66 707.16 1330.07 708.671 1328.97" fill="#6B9202" fill-rule="evenodd"/><path d="M721.038 1329.08C731.147 1328.79 741.098 1329.08 750.892 1329.95 709.034 1349.7 667.18 1369.45 625.33 1389.22 624.296 1390.1 623.407 1391.13 622.696 1392.29 610.638 1397.4 598.775 1402.97 587.135 1408.97L584.501 1406.34C579.736 1396.49 575.198 1386.54 570.891 1376.49 621.16 1361.39 671.214 1345.58 721.038 1329.08" fill="#95D401" fill-rule="evenodd"/><path d="M752.325 1328.97 762.891 1328.97C719.293 1353.87 675.56 1378.54 631.696 1402.97 629.089 1399.19 626.142 1395.65 622.891 1392.4 623.604 1391.24 624.495 1390.2 625.532 1389.32 667.695 1369.39 709.666 1349.57 751.445 1329.85 752.032 1329.85 752.325 1329.56 752.325 1328.97" fill="#2D5F8E" fill-rule="evenodd"/><path d="M762.267 1329.07C767.974 1328.79 773.515 1329.08 778.892 1329.95 748.855 1351.22 718.813 1372.48 688.767 1393.74 687.422 1394.71 686.839 1396.03 687.017 1397.7 673.659 1406.44 660.53 1415.54 647.642 1424.97 641.774 1418.11 636.505 1410.75 631.892 1402.98 675.482 1378.58 718.941 1353.94 762.267 1329.07" fill="#408DDA" fill-rule="evenodd"/><path d="M791.891 1329.05C760.145 1354.7 728.389 1380.34 696.625 1405.97 693.219 1403.54 689.977 1400.88 686.922 1398.01 686.743 1396.34 687.331 1395.02 688.686 1394.03 718.976 1372.68 749.261 1351.31 779.542 1329.94 783.602 1329.1 787.754 1328.81 791.891 1329.05" fill="#A19632" fill-rule="evenodd"/><path d="M791.49 1328.97 816.892 1328.97C785.671 1363.07 753.99 1396.74 721.855 1429.97 712.839 1422.77 704.485 1414.77 696.891 1406.05 728.459 1380.35 759.992 1354.65 791.49 1328.97" fill="#F5E245" fill-rule="evenodd" fill-opacity="0.988235"/><path d="M702.891 1330.86C659.094 1341.92 615.229 1352.71 571.301 1363.22 568.974 1363.54 567.22 1364.57 566.037 1366.33 550.857 1369.99 535.652 1373.54 520.419 1376.97 519.413 1376.69 518.681 1376.1 518.226 1375.2 515.532 1363.35 512.754 1351.53 509.891 1339.72 571.725 1336.49 633.573 1333.24 695.435 1329.97 698.085 1329.97 700.57 1330.27 702.891 1330.86" fill="#FC4E56" fill-rule="evenodd"/></g></svg>