<svg xmlns="http://www.w3.org/2000/svg" xmlns:xlink="http://www.w3.org/1999/xlink" fill="none" viewBox="0 0 128 128" class="h-8 cursor-pointer" alt="LeavesMC"><g><mask id="logo_svg__b" fill="#fff"><use xlink:href="#logo_svg__a"></use></mask><g mask="url(#logo_svg__b)"><path fill-rule="evenodd" d="M67.867 104.601c10.43-2.51 19.09-10.13 23.87-18.75 2.93-5.28 5.6-10.72 6.29-23.32.64-11.43-1.05-29.89-6.07-36.6-6.46 0-13.89 1.04-23.48 3.52-8.78 2.28-19.17 8.5-25.83 14.69-13.45 12.49-20.18 41.13.58 58.75 12.11 2.94 17.52 3.42 24.64 1.71" style="fill:#40794f"></path><path d="M67.399 102.657a31.7 31.7 0 0 0 7.016-2.613 35.7 35.7 0 0 0 6.246-4.08 38.4 38.4 0 0 0 5.263-5.184 37.5 37.5 0 0 0 4.064-5.899q1.302-2.346 2.057-3.972a37 37 0 0 0 1.768-4.568q.846-2.72 1.38-5.921.596-3.585.837-7.998.243-4.333.026-9.403-.229-5.356-.922-10.279-.752-5.339-1.937-9.293-1.258-4.2-2.841-6.318l1.601-1.198v2q-4.793 0-10.274.809-5.742.846-12.705 2.647-3.066.797-6.51 2.286a65 65 0 0 0-6.701 3.389q-3.3 1.905-6.333 4.11a59 59 0 0 0-5.425 4.434q-2.377 2.207-4.42 5.081a40 40 0 0 0-3.632 6.27 42.6 42.6 0 0 0-2.577 7.127 41.2 41.2 0 0 0-1.277 7.649 37.7 37.7 0 0 0 .252 7.844 34.4 34.4 0 0 0 1.996 7.734 33.5 33.5 0 0 0 3.968 7.349q2.6 3.648 6.202 6.706l-1.294 1.525.472-1.943q4.666 1.132 7.851 1.725 3.397.63 6.014.822 2.607.19 4.977-.019 2.28-.2 4.859-.82zm.935 3.889q-2.866.689-5.442.915a35 35 0 0 1-5.62.024q-2.838-.207-6.453-.88-3.291-.612-8.064-1.77l-.46-.112-.362-.307q-3.983-3.38-6.872-7.435a37.5 37.5 0 0 1-4.439-8.223 38.4 38.4 0 0 1-2.229-8.63 41.7 41.7 0 0 1-.28-8.676q.297-4.215 1.4-8.39a46.6 46.6 0 0 1 2.818-7.795 44 44 0 0 1 3.998-6.897q2.28-3.21 4.956-5.694a63 63 0 0 1 5.797-4.738q3.203-2.33 6.685-4.34a69 69 0 0 1 7.112-3.596q3.729-1.612 7.097-2.487 7.17-1.854 13.123-2.732 5.771-.852 10.858-.852h1.002l.6.802q2.009 2.685 3.47 7.567 1.271 4.244 2.066 9.882.72 5.115.958 10.667.225 5.266-.029 9.791-.254 4.633-.886 8.436-.577 3.473-1.506 6.455a41 41 0 0 1-1.96 5.063q-.815 1.756-2.186 4.227a41.5 41.5 0 0 1-4.495 6.528 42.4 42.4 0 0 1-5.81 5.722 39.7 39.7 0 0 1-6.947 4.535 35.7 35.7 0 0 1-7.9 2.94z" style="fill:#40794f;opacity:1"></path><path d="M68.642 114.716q4.928-1.187 9.621-3.594a48.8 48.8 0 0 0 8.552-5.609 52.7 52.7 0 0 0 7.2-7.123 51.7 51.7 0 0 0 5.565-8.108q1.77-3.204 2.801-5.436a51 51 0 0 0 2.421-6.287q1.16-3.737 1.887-8.127.813-4.9 1.144-10.922.324-5.91.029-12.814a146 146 0 0 0-1.253-14.008q-1.024-7.296-2.639-12.706-1.736-5.818-3.952-8.785L101.62 10v2q-6.518 0-13.965 1.105-7.797 1.156-17.22 3.61-4.194 1.09-8.892 3.13a88 88 0 0 0-9.117 4.629 98 98 0 0 0-8.612 5.614q-4.1 2.995-7.39 6.064-3.259 3.041-6.058 6.997a55 55 0 0 0-4.967 8.611 58.6 58.6 0 0 0-3.522 9.782 57 57 0 0 0-1.744 10.504 52 52 0 0 0 .345 10.786 47.5 47.5 0 0 0 2.737 10.649 46.2 46.2 0 0 0 5.44 10.122q3.561 5.02 8.493 9.225l-1.298 1.522.473-1.943q6.321 1.537 10.635 2.343 4.623.862 8.191 1.123 3.575.261 6.828-.028 3.131-.277 6.664-1.129zm.937 3.888q-3.822.922-7.248 1.226a46.3 46.3 0 0 1-7.473.032q-3.79-.277-8.633-1.18-4.422-.825-10.848-2.389l-.462-.112-.363-.309q-5.31-4.53-9.16-9.955a50.2 50.2 0 0 1-5.909-10.995 51.5 51.5 0 0 1-2.968-11.542 56 56 0 0 1-.373-11.613 61 61 0 0 1 1.867-11.243 62.6 62.6 0 0 1 3.761-10.447 59 59 0 0 1 5.33-9.239q3.037-4.29 6.595-7.61 3.465-3.234 7.76-6.37a102 102 0 0 1 8.964-5.845 92 92 0 0 1 9.531-4.837q4.985-2.164 9.476-3.331 9.632-2.51 17.642-3.697Q94.807 8 101.62 8h1.002l.6.803q2.641 3.537 4.581 10.035 1.702 5.7 2.768 13.294a149 149 0 0 1 1.288 14.393q.303 7.099-.032 13.205-.343 6.24-1.192 11.357-.772 4.66-2.012 8.657a55 55 0 0 1-2.611 6.78q-1.092 2.363-2.932 5.694a55.6 55.6 0 0 1-5.994 8.734 56.7 56.7 0 0 1-7.746 7.663 52.8 52.8 0 0 1-9.251 6.067q-5.119 2.625-10.51 3.922z" style="fill:#40794f;opacity:1"></path><path d="M39.33 17.524a.496.496 0 0 1-.361.48.5.5 0 0 1-.09.018A48.6 48.6 0 0 0 28.09 20.24a44 44 0 0 0-6.073 2.512l-.45-.893a45 45 0 0 1 6.21-2.569 49.6 49.6 0 0 1 11.053-2.265.5.5 0 0 1 .5.5M10.747 25.902q.241 1.619.65 4.699.302 2.26.462 3.383.265 1.86.524 3.374l-.986.168q-.261-1.527-.528-3.4-.16-1.128-.462-3.394a326 326 0 0 0-.65-4.683q-.4-2.694-.85-5.05A111 111 0 0 0 5.862 8.911a.497.497 0 0 1 .286-.61.5.5 0 0 1 .67.313 112 112 0 0 1 3.07 12.197q.455 2.377.859 5.091M40.123 43.014a.5.5 0 0 1-.432.495q-9.804 1.557-21.192 4.549A277 277 0 0 0 4.115 52.25l-.306-.952a278 278 0 0 1 14.436-4.208q11.442-3.006 21.299-4.57a.498.498 0 0 1 .579.494" style="fill:#fff;opacity:1" transform="translate(40.31 44.252)"></path><path d="M38.538 0q0 .166-.099.298l.002.001q-8.097 10.846-12.817 17.392-5.97 8.28-9.544 13.8-7.001 10.807-10.906 19.45a82 82 0 0 0-2.523 6.226q-.625 1.752-1.44 4.416a61 61 0 0 1-.74 2.305l-.942-.336q.229-.64.725-2.262.823-2.685 1.455-4.459a83 83 0 0 1 2.554-6.302q3.936-8.712 10.977-19.58 3.588-5.542 9.573-13.843 4.719-6.543 12.802-17.373a.498.498 0 0 1 .839-.01.5.5 0 0 1 .084.277" style="fill:#fff;opacity:1" transform="translate(40.31 44.252)"></path></g></g><defs><path id="logo_svg__a" d="M0 0h128v128H0z"></path></defs></svg>